<svg width="32" height="20" viewBox="0 0 32 20" fill="none" xmlns="http://www.w3.org/2000/svg">
<path d="M27.6011 5.65483C21.1746 -0.771661 10.7189 -0.771661 4.29243 5.65483L0 9.94672L4.39892 14.3456C7.61189 17.5586 11.8324 19.1656 16.0535 19.1656C20.2746 19.1656 24.4946 17.5591 27.7081 14.3456L32.0005 10.0532L27.6011 5.65483ZM26.9432 13.5813C20.9384 19.5856 11.1681 19.5856 5.16324 13.5813L1.52865 9.94672L5.05676 6.41861C11.0616 0.414285 20.8319 0.414285 26.8368 6.41861L30.4714 10.0532L26.9432 13.5813Z" fill="black"/>
<path d="M15.4444 5.65967C13.3579 5.65967 11.6606 7.35697 11.6606 9.44345C11.6606 9.74183 11.9028 9.98399 12.2012 9.98399C12.4996 9.98399 12.7417 9.74183 12.7417 9.44345C12.7417 7.95318 13.9542 6.74075 15.4444 6.74075C15.7428 6.74075 15.985 6.49859 15.985 6.20021C15.985 5.90183 15.7433 5.65967 15.4444 5.65967Z" fill="black"/>
<path d="M15.985 2.95703C12.1104 2.95703 8.95801 6.10946 8.95801 9.98406C8.95801 13.8587 12.1104 17.0111 15.985 17.0111C19.8596 17.0111 23.0121 13.8587 23.0121 9.98406C23.0121 6.10946 19.8602 2.95703 15.985 2.95703ZM15.985 15.93C12.7067 15.93 10.0391 13.2624 10.0391 9.98406C10.0391 6.70568 12.7067 4.03811 15.985 4.03811C19.2634 4.03811 21.931 6.70568 21.931 9.98406C21.931 13.2624 19.264 15.93 15.985 15.93Z" fill="black"/>
</svg>
