<svg width="28" height="32" viewBox="0 0 28 32" fill="none" xmlns="http://www.w3.org/2000/svg">
<path d="M27.3062 15.0672C27.3158 15.0304 27.327 14.9952 27.3286 14.9568C27.3291 14.9488 27.3334 14.9419 27.3334 14.9333C27.3334 7.76 21.639 1.89493 14.5334 1.61333V0.533333C14.5334 0.2384 14.2945 0 14.0001 0C13.7057 0 13.4667 0.2384 13.4667 0.533333V1.61333C6.36115 1.89493 0.666748 7.76 0.666748 14.9333C0.666748 14.9419 0.671015 14.9488 0.671548 14.9573C0.673148 14.9952 0.683815 15.0304 0.693948 15.0677C0.702481 15.0992 0.707281 15.1307 0.720615 15.1595C0.733948 15.1877 0.754748 15.2112 0.772881 15.2368C0.795281 15.2683 0.816081 15.2997 0.844881 15.3259C0.850748 15.3312 0.853415 15.3392 0.859815 15.3445C0.879015 15.3605 0.902481 15.3659 0.922748 15.3787C0.954215 15.3984 0.984081 15.4181 1.01981 15.4309C1.05715 15.4448 1.09501 15.4491 1.13341 15.4539C1.15635 15.456 1.17661 15.4667 1.20008 15.4667C1.20808 15.4667 1.21448 15.4624 1.22248 15.4624C1.26301 15.4608 1.30088 15.4496 1.33981 15.4389C1.36861 15.4309 1.39795 15.4267 1.42408 15.4139C1.45448 15.4 1.47955 15.3776 1.50728 15.3579C1.53661 15.3365 1.56648 15.3168 1.59101 15.2901C1.59688 15.2837 1.60488 15.2811 1.61075 15.2741C2.36275 14.3664 3.35368 13.8667 4.40008 13.8667C5.44648 13.8667 6.43741 14.3664 7.18941 15.2741C7.19955 15.2864 7.21501 15.2912 7.22621 15.3024C7.23902 15.3152 7.24541 15.3323 7.25981 15.344C7.28115 15.3616 7.30675 15.368 7.32915 15.3819C7.35635 15.3984 7.38141 15.4149 7.41021 15.4256C7.45395 15.4427 7.49768 15.4496 7.54302 15.4544C7.56275 15.4565 7.58088 15.4667 7.60008 15.4667C7.60861 15.4667 7.61661 15.4629 7.62461 15.4624C7.65181 15.4613 7.67688 15.4544 7.70355 15.4491C7.74035 15.4416 7.77555 15.4331 7.81021 15.4176C7.83688 15.4059 7.86088 15.3909 7.88542 15.3744C7.90302 15.3632 7.92275 15.3573 7.93928 15.3435C7.95208 15.3328 7.95795 15.3179 7.96968 15.3061C7.98195 15.2939 7.99848 15.2875 8.00968 15.2736C8.76275 14.3664 9.75368 13.8667 10.8001 13.8667C11.7921 13.8667 12.7307 14.32 13.4667 15.1392V29.3333C13.4667 30.2155 12.7489 30.9333 11.8667 30.9333C10.9846 30.9333 10.2667 30.2155 10.2667 29.3333C10.2667 29.0384 10.0278 28.8 9.73342 28.8C9.43902 28.8 9.20008 29.0384 9.20008 29.3333C9.20008 30.8037 10.3963 32 11.8667 32C13.3371 32 14.5334 30.8037 14.5334 29.3333V15.1392C15.2694 14.32 16.2081 13.8667 17.2001 13.8667C18.2465 13.8667 19.2374 14.3664 19.9894 15.2741C19.9995 15.2864 20.015 15.2912 20.0262 15.3024C20.039 15.3152 20.0454 15.3323 20.0598 15.344C20.0811 15.3616 20.1067 15.3675 20.1291 15.3813C20.1563 15.3979 20.1814 15.4144 20.2107 15.4256C20.254 15.4421 20.2977 15.4496 20.3435 15.4544C20.3627 15.4565 20.3809 15.4667 20.4001 15.4667C20.4086 15.4667 20.4166 15.4629 20.4246 15.4624C20.4518 15.4613 20.4774 15.4544 20.5041 15.4485C20.5403 15.4411 20.5756 15.4325 20.6102 15.4176C20.6374 15.4059 20.6614 15.3904 20.6859 15.3744C20.7035 15.3632 20.7233 15.3573 20.7398 15.344C20.7526 15.3333 20.7585 15.3184 20.7697 15.3067C20.7819 15.2944 20.7985 15.288 20.8102 15.2741C21.5627 14.3664 22.5537 13.8667 23.6001 13.8667C24.6465 13.8667 25.6374 14.3664 26.3894 15.2741C26.3947 15.2805 26.4022 15.2821 26.4081 15.2885C26.4454 15.3296 26.4902 15.3605 26.5387 15.3888C26.5553 15.3984 26.5681 15.4128 26.5857 15.4203C26.6513 15.4491 26.7233 15.4667 26.8001 15.4667C26.8657 15.4667 26.9307 15.4523 26.9926 15.4277C27.0166 15.4181 27.0364 15.4027 27.0588 15.3899C27.0859 15.3744 27.1153 15.3643 27.1398 15.3435C27.1462 15.3381 27.1489 15.3307 27.1548 15.3248C27.1835 15.2987 27.2038 15.2677 27.2267 15.2357C27.2449 15.2101 27.2657 15.1861 27.279 15.1584C27.2929 15.1301 27.2982 15.0987 27.3062 15.0672ZM23.6001 12.8C22.4171 12.8 21.3003 13.2773 20.4001 14.1515C19.4998 13.2773 18.383 12.8 17.2001 12.8C16.0171 12.8 14.9003 13.2773 14.0001 14.1515C13.0998 13.2773 11.983 12.8 10.8001 12.8C9.61715 12.8 8.50035 13.2773 7.60008 14.1515C6.69982 13.2773 5.58301 12.8 4.40008 12.8C3.46675 12.8 2.57715 13.1019 1.80008 13.656C2.44115 7.49013 7.66782 2.66667 14.0001 2.66667C20.3323 2.66667 25.559 7.49013 26.2001 13.656C25.423 13.1019 24.5334 12.8 23.6001 12.8Z" fill="black"/>
</svg>
