<svg width="20" height="20" viewBox="0 0 20 20" fill="none" xmlns="http://www.w3.org/2000/svg">
<g clip-path="url(#clip0_5864_365)">
<path d="M19.9167 3.49965C19.8334 3.41633 19.75 3.33297 19.5834 3.33297H3.75L3.33332 1.16633C3.33332 0.999649 3.08332 0.833008 2.91664 0.833008H0.416641C0.16668 0.832969 0 0.999649 0 1.24965C0 1.49965 0.16668 1.66633 0.41668 1.66633H2.58336L4.58336 11.833C4.83336 13.1663 6.08336 14.1663 7.41668 14.1663H17C17.25 14.1663 17.4167 13.9997 17.4167 13.7497C17.4167 13.4997 17.25 13.333 17 13.333H7.5C6.83332 13.333 6.16668 12.9997 5.83332 12.4163L18 10.7497C18.1667 10.7497 18.3333 10.583 18.3333 10.4163L20 3.74965C20 3.74965 20 3.58297 19.9167 3.49965ZM17.5833 9.99966L5.41664 11.583L3.91664 4.08297H19L17.5833 9.99966Z" fill="black"/>
<path d="M7.08332 15C5.91668 15 5 15.9167 5 17.0833C5 18.25 5.91668 19.1666 7.08332 19.1666C8.25 19.1666 9.16664 18.25 9.16664 17.0833C9.16668 15.9167 8.25 15 7.08332 15ZM7.08332 18.3333C6.41664 18.3333 5.83332 17.75 5.83332 17.0833C5.83332 16.4167 6.41664 15.8333 7.08332 15.8333C7.75 15.8333 8.33332 16.4167 8.33332 17.0833C8.33332 17.75 7.75 18.3333 7.08332 18.3333Z" fill="black"/>
<path d="M15.4114 15C14.2448 15 13.3281 15.9167 13.3281 17.0833C13.3281 18.25 14.2448 19.1666 15.4114 19.1666C16.5781 19.1666 17.4948 18.25 17.4948 17.0833C17.4948 15.9167 16.5781 15 15.4114 15ZM15.4114 18.3333C14.7448 18.3333 14.1614 17.75 14.1614 17.0833C14.1614 16.4167 14.7448 15.8333 15.4114 15.8333C16.0781 15.8333 16.6614 16.4167 16.6614 17.0833C16.6614 17.75 16.0781 18.3333 15.4114 18.3333Z" fill="black"/>
</g>
<defs>
<clipPath id="clip0_5864_365">
<rect width="20" height="20" fill="white"/>
</clipPath>
</defs>
</svg>
