<svg width="20" height="20" viewBox="0 0 20 20" fill="none" xmlns="http://www.w3.org/2000/svg">
<path d="M4.04053 19.528C3.96642 19.528 3.89232 19.5051 3.83003 19.4596C3.71977 19.3794 3.66464 19.2438 3.68791 19.1095L4.79446 12.6592L0.107975 8.09156C0.0106009 7.99634 -0.0244824 7.85421 0.0174028 7.72498C0.059646 7.59539 0.171698 7.50088 0.306661 7.48119L6.78276 6.54002L9.67928 0.67144C9.73942 0.549006 9.864 0.47168 10 0.47168C10.1364 0.47168 10.261 0.549006 10.3208 0.67144L13.217 6.54002L19.6934 7.48119C19.8284 7.50088 19.9401 7.59503 19.9827 7.72498C20.0246 7.85421 19.9898 7.9967 19.8921 8.09156L15.2056 12.6599L16.3118 19.1099C16.3347 19.2441 16.2796 19.3798 16.1697 19.46C16.0594 19.5409 15.913 19.5513 15.7924 19.4872L10 16.4421L4.207 19.4872C4.15473 19.5144 4.09745 19.528 4.04053 19.528ZM1.12718 8.08512L5.42883 12.2783C5.51296 12.3603 5.55162 12.4791 5.53157 12.5951L4.51594 18.5156L9.83357 15.7204C9.93775 15.6653 10.062 15.6653 10.1669 15.7204L15.4838 18.5156L14.4685 12.5951C14.4485 12.4791 14.4871 12.3606 14.5713 12.2783L18.8729 8.08512L12.9284 7.22128C12.8117 7.20446 12.7111 7.13107 12.6589 7.02546L10 1.6391L7.34123 7.02582C7.28896 7.13143 7.18836 7.20482 7.07166 7.22164L1.12718 8.08512Z" fill="black"/>
</svg>
