<svg width="20" height="20" viewBox="0 0 20 20" fill="none" xmlns="http://www.w3.org/2000/svg">
<g clip-path="url(#clip0_5864_354)">
<path d="M14.622 12.9868C14.6061 12.9851 12.3039 13.053 11.9616 10.5859C12.3419 10.3205 12.6925 9.97602 13.0013 9.55797C13.6021 8.74469 13.9892 7.72445 14.1271 6.6209C14.1745 6.57805 14.2137 6.52473 14.2401 6.46187C14.4896 5.86754 14.6161 5.23293 14.6161 4.57559C14.6161 2.05262 12.7129 0 10.3735 0C9.76164 0 9.16805 0.140937 8.60742 0.419258C8.39355 0.435586 8.18398 0.473203 7.98301 0.53125C7.02219 0.808867 6.24031 1.52125 5.78137 2.53727C5.33582 3.52375 5.24801 4.68504 5.53418 5.80727C5.59465 6.04434 5.67152 6.2773 5.7627 6.49988C5.78738 6.56008 5.82418 6.61145 5.86836 6.65371C6.09172 8.37617 6.91129 9.80332 8.02879 10.5825C7.68543 13.0538 5.38402 12.9852 5.36816 12.9869C3.71262 13.0431 2.38281 14.4065 2.38281 16.0755V19.5497C2.38281 19.7984 2.58441 20 2.83312 20H6.78746H13.2026H17.157C17.4057 20 17.6073 19.7984 17.6073 19.5497V16.0755C17.6073 14.4064 16.2776 13.043 14.622 12.9868ZM8.23305 1.39652C8.39738 1.34902 8.57094 1.32086 8.74891 1.31285C8.81496 1.30988 8.87953 1.29242 8.93809 1.26164C9.39398 1.02211 9.87695 0.900664 10.3735 0.900664C12.2162 0.900664 13.7155 2.54922 13.7155 4.57559C13.7155 4.63641 13.7138 4.69691 13.7111 4.75719C13.3537 4.39422 12.8571 4.16863 12.3087 4.16863H9.23949C9.05688 4.16863 8.88355 4.11129 8.7382 4.00277C8.6141 3.91016 8.51816 3.78566 8.46086 3.64277C8.37211 3.42176 8.15328 3.28352 7.91508 3.29848C7.67602 3.31371 7.47484 3.47973 7.41445 3.71172C7.2366 4.39516 6.88195 5.02469 6.39539 5.5352C5.94266 3.67195 6.75973 1.82219 8.23305 1.39652ZM7.84125 9.18516C7.25527 8.4693 6.87152 7.50262 6.74988 6.4443C7.31812 5.93785 7.76734 5.30762 8.0598 4.60855C8.10418 4.64949 8.15078 4.6882 8.19945 4.72457C8.50164 4.95008 8.86125 5.06934 9.23953 5.06934H12.3087C12.743 5.06934 13.1173 5.3298 13.2843 5.70258C13.2843 5.70578 13.2838 5.70883 13.2838 5.71203C13.2838 8.25414 11.8088 10.3223 9.99574 10.3223C9.20668 10.3223 8.44148 9.91848 7.84125 9.18516ZM8.87598 11.0247C9.23297 11.1539 9.60848 11.223 9.99574 11.223C10.3799 11.223 10.7553 11.1561 11.1146 11.0271C11.2795 11.8861 11.7571 12.6348 12.4243 13.1503L10.0596 16.5178C10.0442 16.5398 10.0227 16.5509 9.99586 16.5509C9.96902 16.5509 9.94758 16.5397 9.93219 16.5178L7.56695 13.1495C8.23414 12.6335 8.7116 11.8843 8.87598 11.0247ZM16.7066 19.0993H13.2026H6.78746H3.28344V16.0754C3.28344 14.8675 4.26613 13.8848 5.47402 13.8848C5.49043 13.8848 6.21508 13.8672 6.78766 13.607L9.19504 17.0354C9.37801 17.296 9.67738 17.4516 9.99582 17.4516C9.99582 17.4516 9.99582 17.4516 9.99586 17.4516C10.3143 17.4516 10.6137 17.296 10.7966 17.0354L13.2036 13.6075C13.8566 13.8848 14.4997 13.8848 14.5161 13.8848C15.724 13.8848 16.7066 14.8675 16.7066 16.0754V19.0993Z" fill="black"/>
</g>
<defs>
<clipPath id="clip0_5864_354">
<rect width="20" height="20" fill="white"/>
</clipPath>
</defs>
</svg>
